<svg width="7" height="32" viewBox="0 0 7 32" fill="none" xmlns="http://www.w3.org/2000/svg">
<path d="M3.5 17.5C4.4665 17.5 5.25 16.7165 5.25 15.75C5.25 14.7835 4.4665 14 3.5 14C2.5335 14 1.75 14.7835 1.75 15.75C1.75 16.7165 2.5335 17.5 3.5 17.5Z" fill="#BFC2CB"/>
<path d="M3.5 5.25C4.4665 5.25 5.25 4.4665 5.25 3.5C5.25 2.5335 4.4665 1.75 3.5 1.75C2.5335 1.75 1.75 2.5335 1.75 3.5C1.75 4.4665 2.5335 5.25 3.5 5.25Z" fill="#BFC2CB"/>
<path d="M3.5 29.75C4.4665 29.75 5.25 28.9665 5.25 28C5.25 27.0335 4.4665 26.25 3.5 26.25C2.5335 26.25 1.75 27.0335 1.75 28C1.75 28.9665 2.5335 29.75 3.5 29.75Z" fill="#BFC2CB"/>
<path d="M3.5 17.5C4.4665 17.5 5.25 16.7165 5.25 15.75C5.25 14.7835 4.4665 14 3.5 14C2.5335 14 1.75 14.7835 1.75 15.75C1.75 16.7165 2.5335 17.5 3.5 17.5Z" stroke="#BFC2CB" stroke-width="3.5" stroke-linecap="round" stroke-linejoin="round"/>
<path d="M3.5 5.25C4.4665 5.25 5.25 4.4665 5.25 3.5C5.25 2.5335 4.4665 1.75 3.5 1.75C2.5335 1.75 1.75 2.5335 1.75 3.5C1.75 4.4665 2.5335 5.25 3.5 5.25Z" stroke="#BFC2CB" stroke-width="3.5" stroke-linecap="round" stroke-linejoin="round"/>
<path d="M3.5 29.75C4.4665 29.75 5.25 28.9665 5.25 28C5.25 27.0335 4.4665 26.25 3.5 26.25C2.5335 26.25 1.75 27.0335 1.75 28C1.75 28.9665 2.5335 29.75 3.5 29.75Z" stroke="#BFC2CB" stroke-width="3.5" stroke-linecap="round" stroke-linejoin="round"/>
</svg>
