<svg width="15" height="16" viewBox="0 0 15 16" fill="none" xmlns="http://www.w3.org/2000/svg">
<path d="M1.93548 15H3.3871V16H1.93548C0.867944 16 0 15.1031 0 14V2C0 0.896875 0.867944 0 1.93548 0H6.65625C7.04032 0 7.40927 0.159375 7.68145 0.440625L11.1865 4.05937C11.4587 4.34062 11.6129 4.72188 11.6129 5.11875V9.5H10.6452V6H7.25806C6.45665 6 5.80645 5.32812 5.80645 4.5V1H1.93548C1.4002 1 0.967742 1.44687 0.967742 2V14C0.967742 14.5531 1.4002 15 1.93548 15ZM10.63 5C10.6089 4.9125 10.5665 4.83125 10.503 4.76875L6.99798 1.14688C6.93448 1.08125 6.85887 1.0375 6.77419 1.01562V4.5C6.77419 4.775 6.99194 5 7.25806 5H10.63ZM5.32258 11H6.29032C7.2248 11 7.98387 11.7844 7.98387 12.75C7.98387 13.7156 7.2248 14.5 6.29032 14.5H5.80645V15.5C5.80645 15.775 5.58871 16 5.32258 16C5.05645 16 4.83871 15.775 4.83871 15.5V14V11.5C4.83871 11.225 5.05645 11 5.32258 11ZM6.29032 13.5C6.69254 13.5 7.01613 13.1656 7.01613 12.75C7.01613 12.3344 6.69254 12 6.29032 12H5.80645V13.5H6.29032ZM9.19355 11H10.1613C10.9627 11 11.6129 11.6719 11.6129 12.5V14.5C11.6129 15.3281 10.9627 16 10.1613 16H9.19355C8.92742 16 8.70968 15.775 8.70968 15.5V11.5C8.70968 11.225 8.92742 11 9.19355 11ZM10.1613 15C10.4274 15 10.6452 14.775 10.6452 14.5V12.5C10.6452 12.225 10.4274 12 10.1613 12H9.67742V15H10.1613ZM12.5806 11.5C12.5806 11.225 12.7984 11 13.0645 11H14.5161C14.7823 11 15 11.225 15 11.5C15 11.775 14.7823 12 14.5161 12H13.5484V13H14.5161C14.7823 13 15 13.225 15 13.5C15 13.775 14.7823 14 14.5161 14H13.5484V15.5C13.5484 15.775 13.3306 16 13.0645 16C12.7984 16 12.5806 15.775 12.5806 15.5V13.5V11.5Z" fill="#0027D6"/>
</svg>
